HIERARCHY
ROOT Hips
{
 OFFSET 0.000000 0.000000 0.000000
 CHANNELS 6 Xposition Yposition Zposition Yrotation Xrotation Zrotation
 JOINT Chest
 {
  OFFSET 0.000000 9.585900 0.002600
  CHANNELS 3 Yrotation Xrotation Zrotation
  JOINT Chest2
  {
   OFFSET 0.000000 9.601200 -0.005300
   CHANNELS 3 Yrotation Xrotation Zrotation
   JOINT Chest3
   {
    OFFSET 0.000000 9.561800 0.000000
    CHANNELS 3 Yrotation Xrotation Zrotation
    JOINT Chest4
    {
     OFFSET 0.000000 9.552100 0.000000
     CHANNELS 3 Yrotation Xrotation Zrotation
     JOINT Neck
     {
      OFFSET 0.000000 14.453000 0.000000
      CHANNELS 3 Yrotation Xrotation Zrotation
      JOINT Head
      {
       OFFSET 0.000000 8.936500 -0.011300
       CHANNELS 3 Yrotation Xrotation Zrotation
       End Site
       {
        OFFSET 0.000000 17.073600 -0.006000
       }
      }
     }
     JOINT RightCollar
     {
      OFFSET -2.921100 9.558500 0.000000
      CHANNELS 3 Yrotation Xrotation Zrotation
      JOINT RightShoulder
      {
       OFFSET -13.519700 0.000000 0.000000
       CHANNELS 3 Yrotation Xrotation Zrotation
       JOINT RightElbow
       {
        OFFSET 0.000000 -29.696600 0.000000
        CHANNELS 3 Yrotation Xrotation Zrotation
        JOINT RightWrist
        {
         OFFSET 0.000000 -24.004700 0.000000
         CHANNELS 3 Yrotation Xrotation Zrotation
         End Site
         {
          OFFSET 0.000000 -17.728500 0.000000
         }
        }
       }
      }
     }
     JOINT LeftCollar
     {
      OFFSET 2.921100 9.558500 0.000000
      CHANNELS 3 Yrotation Xrotation Zrotation
      JOINT LeftShoulder
      {
       OFFSET 13.519700 0.000000 0.000000
       CHANNELS 3 Yrotation Xrotation Zrotation
       JOINT LeftElbow
       {
        OFFSET 0.000000 -29.696600 0.000000
        CHANNELS 3 Yrotation Xrotation Zrotation
        JOINT LeftWrist
        {
         OFFSET 0.000000 -24.004700 0.000000
         CHANNELS 3 Yrotation Xrotation Zrotation
         End Site
         {
          OFFSET 0.000000 -17.728500 0.000000
         }
        }
       }
      }
     }
    }
   }
  }
 }
 JOINT RightHip
 {
  OFFSET -7.771700 -0.012900 -0.001300
  CHANNELS 3 Yrotation Xrotation Zrotation
  JOINT RightKnee
  {
   OFFSET 0.000000 -40.869800 0.001200
   CHANNELS 3 Yrotation Xrotation Zrotation
   JOINT RightAnkle
   {
    OFFSET 0.000000 -39.717900 0.002100
    CHANNELS 3 Yrotation Xrotation Zrotation
    JOINT RightToe
    {
     OFFSET 0.000000 -4.965400 11.033500
     CHANNELS 3 Yrotation Xrotation Zrotation
     End Site
     {
      OFFSET 0.000000 -1.423100 5.872300
     }
    }
   }
  }
 }
 JOINT LeftHip
 {
  OFFSET 7.771700 -0.012900 -0.001300
  CHANNELS 3 Yrotation Xrotation Zrotation
  JOINT LeftKnee
  {
   OFFSET 0.000000 -40.869800 0.001200
   CHANNELS 3 Yrotation Xrotation Zrotation
   JOINT LeftAnkle
   {
    OFFSET 0.000000 -39.717900 0.002100
    CHANNELS 3 Yrotation Xrotation Zrotation
    JOINT LeftToe
    {
     OFFSET 0.000000 -4.965400 11.033500
     CHANNELS 3 Yrotation Xrotation Zrotation
     End Site
     {
      OFFSET 0.000000 -1.423100 5.872300
     }
    }
   }
  }
 }
}
MOTION
Frames: 9
Frame Time: 0.008333
0.951734 53.699690 35.978589 171.370392 -40.229349 -3.311158 3.750581 22.115449 2.961329 0.426412 3.069663 0.364745 0.693225 5.013855 0.620348 2.991375 18.588600 2.650604 2.621535 17.541736 0.299864 4.744441 -3.072965 -0.279593 -5.536255 -2.660291 -2.558301 -2.759316 1.265325 4.424012 -129.097393 -83.072446 144.741557 2.224478 6.662859 4.751826 -4.854075 0.548335 0.894018 7.675574 -1.740207 1.284119 117.163042 -77.170575 -134.423296 -5.686984 0.673926 12.199240 -4.603801 -40.928830 4.476636 178.387029 87.201317 -177.645047 -0.822339 -10.410838 -2.361932 0.030766 -0.056442 0.044579 -0.335097 -37.479933 7.409555 71.833748 82.663005 61.890871 -5.391775 -11.337988 9.357506 -0.021843 0.483244 0.015067
0.934513 53.607786 35.972657 171.268782 -40.318556 -3.130838 3.766712 22.208056 2.847371 0.419621 3.106802 0.382320 0.712401 5.005887 0.601863 2.998403 18.625447 2.657918 2.628459 17.553146 0.291937 4.735574 -3.159840 -0.317869 -5.500483 -2.778389 -2.548105 -2.727441 1.259419 4.358285 -128.589983 -83.071660 144.175884 2.212707 6.662820 4.759423 -4.886634 0.490994 0.890946 7.658020 -1.784792 1.237077 117.751538 -77.259284 -134.981205 -5.712335 0.586706 12.387643 -4.531335 -40.788319 4.315401 177.301694 87.256693 -178.762471 -0.805109 -10.433693 -2.432172 0.026059 -0.043735 0.046225 -0.171098 -37.415558 7.314313 71.790036 82.765755 61.788151 -5.406860 -11.463739 9.409416 -0.003991 0.604838 0.028119
0.914988 53.515296 35.972677 171.217273 -40.353835 -3.001216 3.758085 22.259944 2.756753 0.421031 3.113887 0.379992 0.719201 4.997037 0.592664 3.002215 18.676813 2.676518 2.628165 17.531552 0.275052 4.740985 -3.208023 -0.350893 -5.482718 -2.867280 -2.553121 -2.693401 1.229128 4.310964 -127.948148 -83.070860 143.542358 2.209252 6.658840 4.716170 -4.925763 0.440222 0.890946 7.643444 -1.823554 1.181107 118.044075 -77.324183 -135.230491 -5.766445 0.489402 12.543650 -4.473574 -40.724384 4.155405 175.657541 87.290379 179.586119 -0.799477 -10.434696 -2.482945 0.014137 -0.053867 0.038314 -0.074855 -37.399234 7.270353 71.747201 82.856522 61.690478 -5.569773 -11.625296 9.424818 0.134307 0.786498 0.084173
0.885220 53.427562 35.974651 171.186457 -40.360116 -2.852475 3.712756 22.291176 2.629223 0.432877 3.103618 0.367013 0.712669 5.031149 0.607764 3.005743 18.666539 2.664877 2.630946 17.540290 0.272256 4.748735 -3.246489 -0.384913 -5.465763 -2.922795 -2.551721 -2.665852 1.193328 4.261637 -127.306176 -83.090455 142.966844 2.198119 6.671781 4.680662 -4.941218 0.415165 0.889869 7.602734 -1.848552 1.132512 118.350821 -77.382610 -135.479928 -5.795750 0.424330 12.655480 -4.363229 -40.710098 3.922564 173.708348 87.296918 177.655537 -0.808475 -10.469993 -2.528882 0.015485 -0.035438 0.038120 0.045469 -37.409677 7.135942 71.758337 82.899276 61.667778 -5.693687 -11.777341 9.426503 0.232220 0.955075 0.135502
0.855165 53.349534 35.977138 171.155523 -40.367757 -2.724495 3.663655 22.330579 2.540317 0.447559 3.101185 0.349955 0.705495 5.067440 0.623477 3.003781 18.673339 2.650350 2.631388 17.515547 0.247735 4.759595 -3.273763 -0.418679 -5.431200 -3.032471 -2.559092 -2.663055 1.191163 4.211044 -127.052215 -83.122550 142.757598 2.197109 6.694634 4.667708 -4.948881 0.354375 0.872448 7.559385 -1.866092 1.081773 118.790716 -77.444413 -135.887128 -5.787004 0.416109 12.748500 -4.231206 -40.702680 3.695534 171.948926 87.294657 175.935879 -0.803909 -10.512897 -2.562074 0.010743 0.000636 0.037126 0.160292 -37.416468 7.014185 71.764850 82.924459 61.649318 -5.799628 -11.890047 9.436901 0.310509 1.086288 0.177182
0.823755 53.280376 35.981368 171.150954 -40.367475 -2.621807 3.610620 22.344087 2.442003 0.433788 3.127511 0.368682 0.727262 5.042589 0.592453 2.993604 18.722649 2.673665 2.634694 17.478618 0.216394 4.781860 -3.261551 -0.459320 -5.382676 -3.167687 -2.563716 -2.685867 1.251816 4.172884 -127.198508 -83.154040 142.950123 2.205447 6.721894 4.667826 -4.967389 0.305941 0.866261 7.535254 -1.883149 1.016145 119.232901 -77.484831 -136.323540 -5.780533 0.472313 12.803644 -4.100604 -40.719921 3.471898 170.552681 87.278265 174.588116 -0.797460 -10.513101 -2.579271 0.005280 -0.017108 0.028806 0.259929 -37.429796 6.888591 71.769122 82.932634 61.640195 -5.903184 -11.984453 9.446327 0.388816 1.201939 0.215044
0.795521 53.221343 35.986334 171.143988 -40.375884 -2.542416 3.570747 22.359563 2.370726 0.433211 3.135419 0.369756 0.726379 5.059543 0.593200 2.987119 18.737558 2.677240 2.640585 17.457853 0.190073 4.796912 -3.255144 -0.489965 -5.355110 -3.245228 -2.587576 -2.675323 1.224340 4.135369 -127.000257 -83.195966 142.776110 2.221078 6.752607 4.671529 -5.020844 0.268985 0.886267 7.565192 -1.886415 0.936926 119.353508 -77.518010 -136.423032 -5.810442 0.532930 12.758658 -3.975749 -40.725011 3.282277 169.738962 87.271289 173.826908 -0.780470 -10.515039 -2.585219 0.001365 -0.036517 0.017494 0.335160 -37.433333 6.789127 71.822309 82.932759 61.686994 -5.996514 -12.064144 9.449076 0.461933 1.295506 0.241062
0.773999 53.171707 35.992672 171.125720 -40.393132 -2.492728 3.555569 22.375865 2.340907 0.432070 3.143044 0.370844 0.726007 5.077447 0.594117 2.975861 18.750675 2.680546 2.647745 17.457844 0.170728 4.807281 -3.268329 -0.524194 -5.330238 -3.298027 -2.616552 -2.647148 1.134663 4.066723 -126.376070 -83.232537 142.155430 2.199383 6.771554 4.646793 -5.041144 0.234905 0.888254 7.591896 -1.884825 0.895654 119.489675 -77.523945 -136.558623 -5.834150 0.663460 12.638644 -3.869627 -40.715301 3.156279 169.494198 87.276640 173.629308 -0.757583 -10.505580 -2.583196 0.004498 -0.041976 0.010670 0.394645 -37.426638 6.734526 71.836257 82.930769 61.697326 -6.047623 -12.117506 9.456624 0.491288 1.358570 0.252927
0.749833 53.126228 36.003329 171.152479 -40.379669 -2.448903 3.495283 22.359496 2.284428 0.430560 3.149992 0.371863 0.711970 5.101564 0.610755 2.974845 18.751477 2.659489 2.650426 17.466310 0.160921 4.818196 -3.281899 -0.557879 -5.310498 -3.336363 -2.640539 -2.629931 1.108198 4.039808 -126.262946 -83.254760 142.053597 2.243809 6.800202 4.682039 -5.071509 0.211746 0.905481 7.609873 -1.873523 0.810616 119.701522 -77.541787 -136.787805 -5.880137 0.849506 12.473720 -3.783117 -40.737650 3.015471 168.927965 87.278698 173.096274 -0.768013 -10.498642 -2.567322 0.007684 -0.051871 0.004948 0.494944 -37.453196 6.623046 71.770438 82.920965 61.668169 -6.142548 -12.165314 9.461596 0.552478 1.428302 0.279561
